<svg width="32" height="33" viewBox="0 0 32 33" fill="none" xmlns="http://www.w3.org/2000/svg">
<path fill-rule="evenodd" clip-rule="evenodd" d="M16 12.0172C17.7334 12.0172 19.3292 12.6067 20.5977 13.5961C19.905 14.4258 19.4879 15.4937 19.4879 16.6589C19.4879 17.7223 19.8353 18.7047 20.4226 19.499H11.5774C12.1647 18.7047 12.5121 17.7224 12.5121 16.6589C12.5121 15.4937 12.095 14.4258 11.4023 13.5961C12.6708 12.6067 14.2666 12.0172 16 12.0172ZM7.72928 21.4522C11.0899 21.4522 13.933 23.6678 14.8775 26.718C15.0435 27.2539 14.9533 27.7871 14.6204 28.2387C14.2875 28.6902 13.8049 28.934 13.2439 28.934H2.2146C1.6536 28.934 1.17097 28.6902 0.838096 28.2387C0.505221 27.7871 0.415033 27.2539 0.580971 26.718C1.52553 23.6679 4.36872 21.4522 7.72928 21.4522ZM24.2707 12.8762C22.1815 12.8762 20.4879 14.5698 20.4879 16.659C20.4879 18.7482 22.1815 20.4418 24.2707 20.4418C26.3599 20.4418 28.0535 18.7482 28.0535 16.659C28.0535 14.5698 26.3599 12.8762 24.2707 12.8762ZM7.72928 12.8762C5.6401 12.8762 3.94647 14.5698 3.94647 16.659C3.94647 18.7482 5.6401 20.4418 7.72928 20.4418C9.81847 20.4418 11.5121 18.7482 11.5121 16.659C11.5121 14.5698 9.81847 12.8762 7.72928 12.8762ZM24.2707 21.4522C27.6313 21.4522 30.4744 23.6678 31.4189 26.718C31.5849 27.2539 31.4947 27.7871 31.1618 28.2387C30.8289 28.6902 30.3463 28.934 29.7853 28.934H18.756C18.195 28.934 17.7124 28.6902 17.3795 28.2387C17.0467 27.7871 16.9565 27.2539 17.1224 26.718C18.067 23.6679 20.9102 21.4522 24.2707 21.4522ZM16 3.44116C18.0892 3.44116 19.7828 5.13479 19.7828 7.22397C19.7828 9.31316 18.0892 11.0068 16 11.0068C13.9108 11.0068 12.2172 9.31316 12.2172 7.22397C12.2172 5.13479 13.9108 3.44116 16 3.44116Z" fill="#088AB2"/>
</svg>
