<svg width="5" height="17" viewBox="0 0 5 17" fill="none" xmlns="http://www.w3.org/2000/svg">
<path d="M2.3999 8.58008H2.4099M2.3999 2.58008H2.4099M2.3999 14.5801H2.4099M3.3999 8.58008C3.3999 9.13236 2.95219 9.58008 2.3999 9.58008C1.84762 9.58008 1.3999 9.13236 1.3999 8.58008C1.3999 8.02779 1.84762 7.58008 2.3999 7.58008C2.95219 7.58008 3.3999 8.02779 3.3999 8.58008ZM3.3999 14.5801C3.3999 15.1324 2.95219 15.5801 2.3999 15.5801C1.84762 15.5801 1.3999 15.1324 1.3999 14.5801C1.3999 14.0278 1.84762 13.5801 2.3999 13.5801C2.95219 13.5801 3.3999 14.0278 3.3999 14.5801ZM3.3999 2.58008C3.3999 3.13236 2.95219 3.58008 2.3999 3.58008C1.84762 3.58008 1.3999 3.13236 1.3999 2.58008C1.3999 2.02779 1.84762 1.58008 2.3999 1.58008C2.95219 1.58008 3.3999 2.02779 3.3999 2.58008Z" stroke="#131A29" stroke-width="2" stroke-linecap="round" stroke-linejoin="round"/>
</svg>
