<svg width="32" height="33" viewBox="0 0 32 33" fill="none" xmlns="http://www.w3.org/2000/svg">
<path d="M22 22.6874C21.9639 22.6406 21.9237 22.5971 21.88 22.5574L21.53 22.1474L20.215 20.6474L13.675 13.1474C13.6299 13.109 13.5896 13.0654 13.555 13.0174L12.165 11.4274L10.85 9.9274L10.175 9.1374L10.14 9.0924L10.06 9.0024L5.95996 4.2974C5.87851 4.18466 5.77443 4.09016 5.65439 4.01992C5.53434 3.94969 5.40096 3.90527 5.26277 3.8895C5.12459 3.87374 4.98463 3.88697 4.85185 3.92835C4.71906 3.96974 4.59637 4.03837 4.49162 4.12986C4.38686 4.22135 4.30234 4.33368 4.24345 4.45968C4.18457 4.58569 4.15262 4.72259 4.14964 4.86164C4.14666 5.00069 4.17272 5.13884 4.22615 5.26725C4.27959 5.39565 4.35922 5.51151 4.45996 5.6074L7.79996 9.4374C4.95496 11.1274 2.87496 13.3874 1.44496 14.9374C1.27496 15.1224 1.11996 15.2974 0.944965 15.4374L0.899965 15.4824L0.854965 15.5374C0.830562 15.5635 0.808791 15.592 0.789965 15.6224C0.758397 15.6714 0.731607 15.7233 0.709965 15.7774C0.685446 15.8392 0.665394 15.9027 0.649965 15.9674C0.623026 16.0994 0.623026 16.2354 0.649965 16.3674C0.665394 16.4321 0.685446 16.4956 0.709965 16.5574C0.731607 16.6115 0.758397 16.6634 0.789965 16.7124C0.808791 16.7428 0.830562 16.7713 0.854965 16.7974L0.899965 16.8524L0.944965 16.8974C1.09496 17.0574 1.25496 17.2274 1.44496 17.3974C3.95496 20.1874 8.64496 25.2674 16 25.2674C17.6638 25.2673 19.3167 24.9989 20.895 24.4724L24.04 28.0774C24.1214 28.1901 24.2255 28.2846 24.3455 28.3549C24.4656 28.4251 24.599 28.4695 24.7372 28.4853C24.8753 28.5011 25.0153 28.4878 25.1481 28.4464C25.2809 28.4051 25.4036 28.3364 25.5083 28.2449C25.6131 28.1534 25.6976 28.0411 25.7565 27.9151C25.8154 27.7891 25.8473 27.6522 25.8503 27.5132C25.8533 27.3741 25.8272 27.236 25.7738 27.1075C25.7203 26.9791 25.6407 26.8633 25.54 26.7674L22 22.6874ZM16 24.3224C14.494 24.324 13.0172 23.9071 11.7345 23.1182C10.4517 22.3292 9.41347 21.1993 8.73563 19.8545C8.0578 18.5097 7.76704 17.003 7.89583 15.5026C8.02462 14.0021 8.56788 12.567 9.46496 11.3574L10.82 12.9124C10.231 13.8392 9.90206 14.9073 9.86755 16.0049C9.83304 17.1025 10.0942 18.1891 10.6238 19.1511C11.1533 20.1131 11.9318 20.9151 12.8776 21.473C13.8234 22.0309 14.9019 22.3243 16 22.3224C16.8757 22.323 17.741 22.1318 18.535 21.7624L19.45 22.8124L19.895 23.3124C18.7017 23.9699 17.3624 24.3172 16 24.3224ZM22.79 20.6074L22.73 20.6874C22.7543 20.6643 22.7746 20.6372 22.79 20.6074ZM20.325 14.7374C20.4596 14.5791 20.5415 14.3829 20.5594 14.1759C20.5773 13.9689 20.5303 13.7614 20.425 13.5824C20.0813 12.997 19.6236 12.4865 19.0791 12.0812C18.5346 11.6758 17.9143 11.3838 17.255 11.2224C16.3927 10.9975 15.4872 10.9975 14.625 11.2224L13.91 10.4024C14.5802 10.162 15.288 10.0435 16 10.0524C16.0816 10.0474 16.1634 10.0474 16.245 10.0524C17.8297 10.1145 19.3286 10.7883 20.4269 11.9323C21.5253 13.0763 22.1375 14.6015 22.135 16.1874C22.1351 16.3844 22.1251 16.5814 22.105 16.7774C22.035 17.5708 21.8036 18.3416 21.425 19.0424L16.215 13.0674C16.7246 13.1025 17.2182 13.2604 17.6536 13.5278C18.0889 13.7951 18.4531 14.1638 18.715 14.6024C18.8503 14.8305 19.0706 14.9954 19.3275 15.0611C19.5844 15.1267 19.8569 15.0876 20.085 14.9524C20.1776 14.8962 20.259 14.8233 20.325 14.7374ZM31.355 16.1874C31.3621 16.2539 31.3621 16.3209 31.355 16.3874C31.3395 16.4521 31.3195 16.5156 31.295 16.5774C31.2733 16.6315 31.2465 16.6834 31.215 16.7324C31.1961 16.7628 31.1744 16.7913 31.15 16.8174L31.105 16.8724L31.06 16.9174L30.605 17.4174C29.284 18.9136 27.837 20.2937 26.28 21.5424C25.7446 21.9542 25.1871 22.3364 24.61 22.6874L23.275 21.1874L22.81 20.6574C23.2118 20.0468 23.5281 19.3839 23.75 18.6874C24.1767 17.3537 24.2522 15.9325 23.9692 14.5611C23.6861 13.1897 23.054 11.9145 22.134 10.8588C21.2141 9.80307 20.0373 9.00254 18.7175 8.53458C17.3977 8.06661 15.9795 7.94703 14.6 8.1874C13.8798 8.31024 13.181 8.53587 12.525 8.8574L11.605 7.7974C12.3236 7.56525 13.0615 7.39791 13.81 7.2974C14.5343 7.18041 15.2663 7.1169 16 7.1074C23.355 7.1074 28.045 12.1874 30.565 14.9374C30.73 15.1274 30.89 15.2974 31.04 15.4374C31.0739 15.467 31.1041 15.5006 31.13 15.5374C31.1544 15.5635 31.1761 15.592 31.195 15.6224V15.6474C31.2196 15.6892 31.2413 15.7326 31.26 15.7774C31.2852 15.839 31.3053 15.9025 31.32 15.9674C31.3406 16.039 31.3524 16.1129 31.355 16.1874Z" fill="#088AB2"/>
</svg>
