<svg width="32" height="33" viewBox="0 0 32 33" fill="none" xmlns="http://www.w3.org/2000/svg">
<path d="M16 13.1475C19.3137 13.1475 22 10.4612 22 7.14746C22 3.83375 19.3137 1.14746 16 1.14746C12.6863 1.14746 10 3.83375 10 7.14746C10 10.4612 12.6863 13.1475 16 13.1475Z" fill="#088AB2"/>
<path d="M30.86 27.0276C30.2376 24.1939 28.8105 21.6 26.75 19.5576C26.2499 19.0557 25.7079 18.5974 25.13 18.1876C22.498 16.2133 19.29 15.1592 16 15.1876C11.9771 15.167 8.10931 16.7378 5.24 19.5576C3.17951 21.6 1.75238 24.1939 1.13 27.0276C1.02182 27.5286 1.02767 28.0476 1.1471 28.5461C1.26653 29.0446 1.4965 29.5099 1.82 29.9076C2.15502 30.3138 2.57691 30.6396 3.05457 30.8612C3.53223 31.0827 4.05351 31.1942 4.58 31.1876H27.42C27.948 31.1879 28.4694 31.0694 28.9454 30.8409C29.4214 30.6124 29.84 30.2798 30.17 29.8676C30.4877 29.4746 30.7143 29.016 30.8336 28.525C30.953 28.0339 30.962 27.5225 30.86 27.0276Z" fill="#088AB2"/>
</svg>
