<svg width="24" height="25" viewBox="0 0 24 25" fill="none" xmlns="http://www.w3.org/2000/svg">
<path fill-rule="evenodd" clip-rule="evenodd" d="M6.00683 20.606L7.00107 19.6022C7.21361 19.3878 7.56008 19.3862 7.77455 19.5985C7.98898 19.8109 7.99056 20.1575 7.77812 20.372L5.88201 22.2862C5.72776 22.4418 5.49566 22.4905 5.29196 22.4098C5.08827 22.3291 4.95251 22.1345 4.9467 21.9157L4.76974 15.1189C4.76189 14.8171 5.00028 14.5658 5.30216 14.5579C5.6039 14.5501 5.85523 14.7886 5.86309 15.0903L6.00683 20.606Z" fill="white"/>
<path fill-rule="evenodd" clip-rule="evenodd" d="M11.3279 6.61624L12.2144 6.23803C12.4922 6.11955 12.6214 5.79758 12.5029 5.52026C12.3844 5.24251 12.0624 5.1133 11.7851 5.23221L10.8986 5.61041C10.6209 5.7289 10.4917 6.05086 10.6102 6.32818C10.7291 6.60593 11.0506 6.73515 11.3279 6.61624Z" fill="white"/>
<path fill-rule="evenodd" clip-rule="evenodd" d="M22.2121 1.96887L14.0994 5.43323C13.8217 5.55171 13.5001 5.4225 13.3816 5.14518C13.2632 4.86743 13.3919 4.54589 13.6697 4.4274L23.0351 0.428149C23.2403 0.340574 23.4785 0.38651 23.6365 0.544488C23.7945 0.702466 23.8404 0.940293 23.7528 1.14592L14.1449 23.6458C14.0737 23.8128 13.9238 23.9334 13.7457 23.9682C13.5675 24.0025 13.3838 23.9463 13.255 23.8179L8.14947 18.7124C7.95929 18.5218 7.93568 18.2213 8.09409 18.0037L13.9753 9.91801L5.62224 15.5584C5.40502 15.7052 5.11482 15.6773 4.92937 15.4923L0.363027 10.9255C0.23467 10.7972 0.178433 10.6135 0.212776 10.4353C0.247549 10.2571 0.368179 10.1073 0.535172 10.0361L8.73287 6.53564C9.01019 6.41716 9.33173 6.54594 9.45021 6.82369C9.5687 7.10144 9.43991 7.42298 9.16216 7.54146L1.70842 10.7242L5.38399 14.3998L15.9415 7.27058C16.1617 7.12205 16.4566 7.15296 16.6412 7.34399C16.8254 7.53503 16.846 7.83081 16.6897 8.04545L9.2536 18.2694L13.4568 22.4726L22.2121 1.96887Z" fill="white"/>
</svg>
