<svg width="30" height="31" viewBox="0 0 30 31" fill="none" xmlns="http://www.w3.org/2000/svg">
<path d="M29.8125 23.7793C29.7773 24.0195 29.7188 24.2539 29.6309 24.4355C29.4727 24.7578 29.3203 24.7871 28.7227 24.7578C27.9492 24.7227 26.8418 24.7578 25.6699 24.8047C25.6699 25.127 25.6816 25.2793 25.6816 25.2793C25.7578 26.1641 26.1562 26.1934 26.3145 26.1934H28.834C29.0566 26.1934 29.2617 26.1934 29.4199 26.0879C29.625 25.9531 29.7129 25.5605 29.7891 24.875C29.8008 24.7754 29.8066 24.6465 29.8125 24.4941V24.4883C29.8125 24.4414 29.8184 24.3828 29.8184 24.3184V24.2539C29.8184 24.0957 29.8184 23.9199 29.8125 23.7793Z" fill="#088AB2"/>
<path d="M0.175781 23.7793C0.210937 24.0195 0.269531 24.2539 0.357422 24.4355C0.515625 24.7578 0.667969 24.7871 1.26562 24.7578C2.03906 24.7227 3.14648 24.7578 4.31836 24.8047C4.31836 25.127 4.30664 25.2793 4.30664 25.2793C4.23047 26.1641 3.83203 26.1934 3.67383 26.1934H1.1543C0.931641 26.1934 0.744141 26.1934 0.568359 26.0879C0.357422 25.9648 0.275391 25.5605 0.199219 24.875C0.1875 24.7754 0.181641 24.6465 0.175781 24.4941V24.4883C0.175781 24.4414 0.169922 24.3828 0.169922 24.3184V24.2539C0.175781 24.0957 0.175781 23.9199 0.175781 23.7793Z" fill="#088AB2"/>
<path d="M30 18.2539C30 16.4551 29.7656 14.6973 29.6719 14.5039C29.6016 14.3633 29.1504 13.9941 28.125 13.2969C27.0879 12.5879 27.1113 12.6934 26.9238 12.2305C27.0938 12.1777 27.2578 12.0781 27.3574 12.0664C27.5801 12.043 27.5918 12.2539 28.0547 12.2539C28.5176 12.2539 29.5195 12.1309 29.7246 11.9258C29.9297 11.7207 29.9941 11.6504 29.9941 11.4688C29.9941 11.2871 29.8887 10.9121 29.6895 10.6895C29.4902 10.4668 28.6406 10.3555 28.1426 10.291C27.6445 10.2266 27.5742 10.291 27.4453 10.373C27.2402 10.502 27.2285 11.6797 27.2285 11.6797L26.7422 11.6914C26.4258 10.9121 25.9863 9.3418 25.3008 8.10547C24.5508 6.75781 23.7656 6.33594 23.4375 6.23047C23.1152 6.13086 22.8223 6.06055 20.625 5.83789C18.3809 5.60352 16.5938 5.57422 15 5.57422C13.4062 5.57422 11.6191 5.60937 9.375 5.83789C7.17773 6.06641 6.88477 6.13086 6.5625 6.23047C6.24023 6.33008 5.44922 6.75781 4.69922 8.10547C4.01367 9.3418 3.57422 10.9121 3.25781 11.6914L2.77148 11.6797C2.77148 11.6797 2.76562 10.502 2.55469 10.373C2.42578 10.291 2.35547 10.2207 1.85742 10.291C1.35938 10.3613 0.509766 10.4668 0.310547 10.6895C0.111328 10.9121 0.00585938 11.2871 0.00585938 11.4688C0.00585938 11.6504 0.0703125 11.7266 0.275391 11.9258C0.480469 12.1309 1.48242 12.2539 1.94531 12.2539C2.4082 12.2539 2.41992 12.043 2.64258 12.0664C2.74219 12.0781 2.91211 12.1777 3.07617 12.2305C2.88281 12.6934 2.91211 12.5879 1.875 13.2969C0.849609 14 0.392578 14.3633 0.328125 14.5039C0.234375 14.6973 0 16.4551 0 18.2539C0 20.0527 0.128906 21.6699 0.128906 22.2441C0.128906 22.4844 0.128906 22.9063 0.181641 23.3105C0.216797 23.5508 0.269531 23.7852 0.363281 23.9668C0.521484 24.2891 0.667969 24.3184 1.27148 24.2891C2.04492 24.2539 3.16406 24.2891 4.31836 24.3359C5.0918 24.3652 5.88281 24.3945 6.58594 24.4121C8.34375 24.4473 7.82812 24.1543 8.57812 24.166C9.32812 24.1777 12.2871 24.3008 14.9941 24.3008C17.7012 24.3008 20.666 24.1777 21.4102 24.166C22.1602 24.1543 21.6445 24.4473 23.4023 24.4121C24.1055 24.4004 24.8965 24.3652 25.6699 24.3359C26.8242 24.2949 27.9492 24.2539 28.7168 24.2891C29.3203 24.3184 29.4668 24.2891 29.625 23.9668C29.7129 23.7852 29.7715 23.5508 29.8066 23.3105C29.8652 22.9063 29.8594 22.4844 29.8594 22.2441C29.8711 21.6758 30 20.0527 30 18.2539ZM5.05078 9.38281C5.33203 8.72656 6.17578 7.4082 6.58594 7.17383C6.68555 7.11523 7.55859 6.83984 9.74414 6.69336C11.7539 6.55859 13.9746 6.50586 15.0059 6.50586C16.0371 6.50586 18.2578 6.55859 20.2676 6.69336C22.4473 6.83984 23.332 7.10938 23.4258 7.17383C23.9531 7.53711 24.6797 8.72656 24.9609 9.38281C25.2422 10.0391 25.6172 11.3281 25.5469 11.5039C25.4766 11.6797 25.6172 11.7676 24.668 11.6914C23.7246 11.6211 17.8008 11.5449 15.0117 11.5449C12.2285 11.5449 6.30469 11.6211 5.35547 11.6914C4.40625 11.7617 4.54688 11.6797 4.47656 11.5039C4.39453 11.3281 4.76953 10.0449 5.05078 9.38281ZM7.20703 16.7188C6.78516 16.8242 6.5332 17.0527 6.00586 17.0469C5.47852 17.0469 4.05469 16.8066 3.75 16.7949C3.44531 16.7832 3.17578 17 3.01758 17.041C2.85938 17.082 2.54883 16.9707 2.08008 16.8242C1.61133 16.6777 1.33594 16.7188 1.18359 16.0801C1.02539 15.4473 1.18359 14.5391 1.18359 14.5391C2.19727 14.4922 3.17578 14.5859 5.00977 15.1016C6.84375 15.6172 7.86328 16.6074 7.86328 16.6074C7.86328 16.6074 7.62891 16.6133 7.20703 16.7188ZM20.9883 21.3359C20.1504 21.4473 16.6406 21.4766 15 21.4766C13.3594 21.4766 9.84961 21.4414 9.01172 21.3359C8.15625 21.2246 7.04297 20.1992 7.81055 19.3848C8.84766 18.2773 8.6543 18.3125 11.0098 18.0078C13.0488 17.7441 14.5957 17.7324 15 17.7324C15.3984 17.7324 16.9512 17.75 18.9902 18.0078C21.3457 18.3125 21.1523 18.2773 22.1895 19.3848C22.957 20.1992 21.8438 21.2246 20.9883 21.3359ZM28.8164 16.0859C28.6582 16.7188 28.3887 16.6836 27.9199 16.8301C27.4512 16.9766 27.1406 17.082 26.9824 17.0469C26.8242 17.0117 26.5547 16.7949 26.25 16.8008C25.9453 16.8125 24.5215 17.0527 23.9941 17.0527C23.4668 17.0527 23.2148 16.8301 22.793 16.7246C22.3711 16.6191 22.1367 16.6191 22.1367 16.6191C22.1367 16.6191 23.1504 15.623 24.9902 15.1133C26.8242 14.5977 27.8027 14.5039 28.8164 14.5508C28.8164 14.5391 28.9746 15.4473 28.8164 16.0859Z" fill="#088AB2"/>
</svg>
