<svg width="30" height="31" viewBox="0 0 30 31" fill="none" xmlns="http://www.w3.org/2000/svg">
<g clip-path="url(#clip0_1_4784)">
<path d="M5.49841 4.25464H8.68591V9.64526H5.49841V4.25464Z" fill="#088AB2"/>
<path d="M5.0578 3.00781H9.12655V4.25469H5.0578V3.00781Z" fill="#A5F0FC"/>
<path d="M1.6781 29.103H28.3218V30.8749H1.6781V29.103Z" fill="#088AB2"/>
<path d="M4.26093 15.6125H25.739V30.875H4.26093V15.6125Z" fill="#F9F9F9"/>
<path d="M4.26093 14.8906H25.739V15.6125H4.26093V14.8906Z" fill="#088AB2"/>
<path d="M14.2031 1.19853L2.03436 12.9126C1.28905 13.6298 1.7953 14.8907 2.83124 14.8907H27.1687C28.2047 14.8907 28.7156 13.6298 27.9656 12.9126L15.7969 1.19853C15.5834 0.991214 15.2976 0.875244 15 0.875244C14.7024 0.875244 14.4166 0.991214 14.2031 1.19853Z" fill="#A5F0FC"/>
<path d="M14.7844 30.8751H6.64685V24.9032C6.64685 22.6579 8.47029 20.8345 10.7156 20.8345C12.9609 20.8345 14.7844 22.6579 14.7844 24.9032V30.8751Z" fill="#088AB2"/>
<path d="M20.1844 19.8218H23.3531V22.9905H20.1844V19.8218ZM20.1844 23.5015H23.3531V26.6702H20.1844V23.5015ZM16.5 19.8218H19.6687V22.9905H16.5V19.8218ZM16.5 23.5015H19.6687V26.6702H16.5V23.5015Z" fill="#ECFDFF"/>
<path d="M15 12.0501C13.6735 12.0501 12.5953 10.972 12.5953 9.64541C12.5953 8.31885 13.6735 7.24072 15 7.24072C16.3266 7.24072 17.4047 8.31885 17.4047 9.64541C17.4047 10.972 16.3266 12.0501 15 12.0501Z" fill="#088AB2"/>
</g>
<defs>
<clipPath id="clip0_1_4784">
<rect width="30" height="30" fill="white" transform="translate(0 0.875)"/>
</clipPath>
</defs>
</svg>
