<svg width="28" height="28" viewBox="0 0 28 28" fill="none" xmlns="http://www.w3.org/2000/svg">
<path d="M16.85 3.77985L15.17 2.09985L13.301 3.96585L15.749 4.88385L16.85 3.77985Z" fill="#088AB2"/>
<path d="M12.221 2.04604L10.541 0.363037L8.672 2.23204L11.12 3.15004L12.221 2.04604Z" fill="#088AB2"/>
<path d="M25.775 12.7049L24.095 11.0249L22.991 12.1259L23.909 14.5739L25.775 12.7049Z" fill="#088AB2"/>
<path d="M24.725 16.7548L25.643 19.2028L27.512 17.3338L25.829 15.6538L24.725 16.7548Z" fill="#088AB2"/>
<path d="M16.745 15.606L25.745 27.528L27.245 24.774L21.941 10.611C20.156 12.375 18.365 14.079 16.745 15.606ZM17.264 5.93395L3.10098 0.626953L0.346985 2.12695L12.269 11.127C13.796 9.50995 15.5 7.71895 17.264 5.93395Z" fill="#088AB2"/>
<path d="M27.236 0.638924C27.236 0.638924 26.921 0.221924 26.078 0.221924C24.938 0.221924 22.832 0.974924 19.244 4.57492C12.998 10.8179 6.773 17.7389 6.773 17.7389L2.831 18.4439L0.994995 20.9219L5.9 21.9749L6.962 26.8709L9.44 25.0349L10.145 21.0929C10.145 21.0929 17.057 14.8769 23.3 8.63092C29.543 2.38492 27.236 0.638924 27.236 0.638924Z" fill="#088AB2"/>
</svg>
