<svg width="24" height="24" viewBox="0 0 24 24" fill="none" xmlns="http://www.w3.org/2000/svg">
  <path opacity="0.1" fill-rule="evenodd" clip-rule="evenodd" d="M0 12C0 5.37258 5.37258 0 12 0C18.6274 0 24 5.37258 24 12C24 18.6274 18.6274 24 12 24C5.37258 24 0 18.6274 0 12Z" fill="white"/>
  <path fill-rule="evenodd" clip-rule="evenodd" d="M12.0006 5.59961C10.2624 5.59961 10.0443 5.60721 9.36161 5.63828C8.68027 5.66948 8.2152 5.77734 7.80827 5.93561C7.38733 6.09908 7.03026 6.31775 6.67452 6.67362C6.31852 7.02936 6.09985 7.38643 5.93585 7.80723C5.77718 8.2143 5.66918 8.67951 5.63851 9.36058C5.60798 10.0433 5.59998 10.2615 5.59998 11.9997C5.59998 13.7378 5.60771 13.9553 5.63864 14.638C5.66998 15.3193 5.77784 15.7844 5.93598 16.1913C6.09958 16.6123 6.31825 16.9693 6.67412 17.3251C7.02972 17.6811 7.38679 17.9003 7.80747 18.0637C8.21467 18.222 8.67987 18.3299 9.36108 18.3611C10.0438 18.3921 10.2618 18.3997 11.9998 18.3997C13.7381 18.3997 13.9555 18.3921 14.6382 18.3611C15.3195 18.3299 15.7851 18.222 16.1924 18.0637C16.6132 17.9003 16.9697 17.6811 17.3253 17.3251C17.6813 16.9693 17.9 16.6123 18.064 16.1915C18.2213 15.7844 18.3293 15.3192 18.3613 14.6381C18.392 13.9554 18.4 13.7378 18.4 11.9997C18.4 10.2615 18.392 10.0434 18.3613 9.36071C18.3293 8.67937 18.2213 8.2143 18.064 7.80737C17.9 7.38643 17.6813 7.02936 17.3253 6.67362C16.9693 6.31762 16.6133 6.09895 16.192 5.93561C15.7839 5.77734 15.3186 5.66948 14.6373 5.63828C13.9546 5.60721 13.7373 5.59961 11.9986 5.59961H12.0006ZM11.4264 6.75294C11.5968 6.75267 11.7869 6.75294 12.0005 6.75294C13.7094 6.75294 13.9119 6.75907 14.5867 6.78974C15.2107 6.81827 15.5494 6.92254 15.775 7.01014C16.0737 7.12614 16.2866 7.26481 16.5105 7.48881C16.7345 7.71281 16.8731 7.92615 16.9894 8.22482C17.077 8.45015 17.1814 8.78882 17.2098 9.41283C17.2405 10.0875 17.2471 10.2902 17.2471 11.9982C17.2471 13.7062 17.2405 13.9089 17.2098 14.5836C17.1813 15.2076 17.077 15.5462 16.9894 15.7716C16.8734 16.0702 16.7345 16.2829 16.5105 16.5068C16.2865 16.7308 16.0738 16.8694 15.775 16.9854C15.5497 17.0734 15.2107 17.1774 14.5867 17.206C13.912 17.2366 13.7094 17.2433 12.0005 17.2433C10.2916 17.2433 10.0891 17.2366 9.41439 17.206C8.79038 17.1772 8.45171 17.0729 8.22598 16.9853C7.92731 16.8693 7.71397 16.7306 7.48997 16.5066C7.26597 16.2826 7.1273 16.0698 7.01103 15.771C6.92343 15.5457 6.81903 15.207 6.79063 14.583C6.75996 13.9083 6.75383 13.7057 6.75383 11.9966C6.75383 10.2875 6.75996 10.0859 6.79063 9.41123C6.81916 8.78722 6.92343 8.44855 7.01103 8.22295C7.12703 7.92428 7.26597 7.71095 7.48997 7.48694C7.71397 7.26294 7.92731 7.12427 8.22598 7.00801C8.45158 6.92001 8.79038 6.816 9.41439 6.78734C10.0048 6.76067 10.2336 6.75267 11.4264 6.75134V6.75294ZM15.4169 7.81562C14.9928 7.81562 14.6488 8.15922 14.6488 8.58336C14.6488 9.00736 14.9928 9.35137 15.4169 9.35137C15.8409 9.35137 16.1849 9.00736 16.1849 8.58336C16.1849 8.15935 15.8409 7.81562 15.4169 7.81562ZM12.0006 8.71296C10.1855 8.71296 8.71389 10.1846 8.71389 11.9997C8.71389 13.8147 10.1855 15.2857 12.0006 15.2857C13.8157 15.2857 15.2868 13.8147 15.2868 11.9997C15.2868 10.1846 13.8157 8.71296 12.0006 8.71296ZM12.0006 9.8663C13.1787 9.8663 14.1339 10.8214 14.1339 11.9997C14.1339 13.1778 13.1787 14.133 12.0006 14.133C10.8223 14.133 9.86721 13.1778 9.86721 11.9997C9.86721 10.8214 10.8223 9.8663 12.0006 9.8663Z" fill="white"/>
</svg>
