<svg width="21" height="21" viewBox="0 0 21 21" fill="none" xmlns="http://www.w3.org/2000/svg">
<path d="M8.80142 12.1949L18.6025 2.39742M9.08 12.6355L11.3024 17.0804C11.8395 18.1545 12.108 18.6916 12.4463 18.8356C12.7399 18.9606 13.0755 18.9379 13.3496 18.7747C13.6656 18.5866 13.8596 18.0183 14.2477 16.8818L18.4468 4.58434C18.7849 3.59409 18.954 3.09896 18.8383 2.77142C18.7376 2.48648 18.5135 2.26234 18.2285 2.16167C17.901 2.04595 17.4059 2.21502 16.4156 2.55315L4.11812 6.7523C2.98163 7.14037 2.41338 7.33441 2.22527 7.65032C2.06202 7.92447 2.0394 8.26007 2.16438 8.55364C2.3084 8.89194 2.84547 9.16047 3.91961 9.69754L8.36445 11.92C8.54145 12.0085 8.62994 12.0527 8.70663 12.1118C8.77468 12.1643 8.83568 12.2253 8.88814 12.2933C8.94725 12.37 8.9915 12.4585 9.08 12.6355Z" stroke="white" stroke-width="3" stroke-linecap="round" stroke-linejoin="round"/>
</svg>
