<svg width="24" height="24" viewBox="0 0 24 24" fill="none" xmlns="http://www.w3.org/2000/svg">
<path d="M15.7101 8.29002C15.6171 8.19629 15.5065 8.1219 15.3847 8.07113C15.2628 8.02036 15.1321 7.99422 15.0001 7.99422C14.8681 7.99422 14.7374 8.02036 14.6155 8.07113C14.4936 8.1219 14.383 8.19629 14.2901 8.29002L12.0001 10.59L9.71008 8.29002C9.52178 8.10171 9.26638 7.99593 9.00008 7.99593C8.73378 7.99593 8.47838 8.10171 8.29008 8.29002C8.10178 8.47832 7.99599 8.73372 7.99599 9.00002C7.99599 9.26632 8.10178 9.52171 8.29008 9.71002L10.5901 12L8.29008 14.29C8.19635 14.383 8.12196 14.4936 8.07119 14.6154C8.02042 14.7373 7.99428 14.868 7.99428 15C7.99428 15.132 8.02042 15.2627 8.07119 15.3846C8.12196 15.5065 8.19635 15.6171 8.29008 15.71C8.38304 15.8037 8.49364 15.8781 8.6155 15.9289C8.73736 15.9797 8.86807 16.0058 9.00008 16.0058C9.13209 16.0058 9.2628 15.9797 9.38466 15.9289C9.50652 15.8781 9.61712 15.8037 9.71008 15.71L12.0001 13.41L14.2901 15.71C14.383 15.8037 14.4936 15.8781 14.6155 15.9289C14.7374 15.9797 14.8681 16.0058 15.0001 16.0058C15.1321 16.0058 15.2628 15.9797 15.3847 15.9289C15.5065 15.8781 15.6171 15.8037 15.7101 15.71C15.8038 15.6171 15.8782 15.5065 15.929 15.3846C15.9797 15.2627 16.0059 15.132 16.0059 15C16.0059 14.868 15.9797 14.7373 15.929 14.6154C15.8782 14.4936 15.8038 14.383 15.7101 14.29L13.4101 12L15.7101 9.71002C15.8038 9.61705 15.8782 9.50645 15.929 9.38459C15.9797 9.26274 16.0059 9.13203 16.0059 9.00002C16.0059 8.86801 15.9797 8.7373 15.929 8.61544C15.8782 8.49358 15.8038 8.38298 15.7101 8.29002ZM19.0701 4.93002C18.1476 3.97492 17.0442 3.21309 15.8241 2.689C14.6041 2.16491 13.2919 1.88905 11.9641 1.87751C10.6363 1.86598 9.3195 2.11899 8.09054 2.6218C6.86158 3.12461 5.74506 3.86714 4.80613 4.80607C3.8672 5.745 3.12467 6.86151 2.62186 8.09048C2.11905 9.31944 1.86604 10.6362 1.87757 11.964C1.88911 13.2918 2.16498 14.604 2.68907 15.8241C3.21316 17.0441 3.97498 18.1476 4.93008 19.07C5.85255 20.0251 6.95599 20.7869 8.17603 21.311C9.39607 21.8351 10.7083 22.111 12.0361 22.1225C13.3639 22.1341 14.6807 21.881 15.9096 21.3782C17.1386 20.8754 18.2551 20.1329 19.194 19.194C20.133 18.255 20.8755 17.1385 21.3783 15.9096C21.8811 14.6806 22.1341 13.3638 22.1226 12.036C22.111 10.7082 21.8352 9.39601 21.3111 8.17597C20.787 6.95593 20.0252 5.85249 19.0701 4.93002ZM17.6601 17.66C16.3521 18.9694 14.6306 19.7848 12.7889 19.9673C10.9471 20.1498 9.09908 19.6881 7.5596 18.6608C6.02012 17.6335 4.88444 16.1042 4.34605 14.3335C3.80767 12.5628 3.89988 10.6602 4.60699 8.9498C5.3141 7.23945 6.59235 5.82717 8.22397 4.95358C9.85559 4.07999 11.7396 3.79915 13.5551 4.15889C15.3706 4.51863 17.0051 5.49671 18.1803 6.92648C19.3555 8.35625 19.9986 10.1493 20.0001 12C20.0036 13.0513 19.7987 14.0929 19.397 15.0644C18.9953 16.0359 18.405 16.9182 17.6601 17.66Z" fill="#98A2B3"/>
</svg>
